<svg width="24" height="24" viewBox="0 0 24 24" fill="none" xmlns="http://www.w3.org/2000/svg">
<g id="Edit-Alt">
<path id="Vector" fill-rule="evenodd" clip-rule="evenodd" d="M15.137 3.46967C14.9964 3.32902 14.8056 3.25 14.6067 3.25C14.4078 3.25 14.217 3.32902 14.0764 3.46967L4.88399 12.6621C4.78976 12.7563 4.72234 12.8739 4.68867 13.0028L3.68867 16.8313C3.62138 17.0889 3.69572 17.3629 3.88399 17.5511C4.07226 17.7394 4.34625 17.8138 4.60386 17.7465L8.43229 16.7465C8.56122 16.7128 8.67885 16.6454 8.77308 16.5511L17.9655 7.35876C18.2583 7.06586 18.2583 6.59099 17.9655 6.2981L15.137 3.46967ZM6.08854 13.5788L14.6067 5.06066L16.3745 6.82843L7.85631 15.3466L5.46355 15.9716L6.08854 13.5788Z" fill="black"/>
<path id="Vector_2" d="M4 19.25C3.58579 19.25 3.25 19.5858 3.25 20C3.25 20.4142 3.58579 20.75 4 20.75H19C19.4142 20.75 19.75 20.4142 19.75 20C19.75 19.5858 19.4142 19.25 19 19.25H4Z" fill="black"/>
</g>
</svg>
