<svg width="24" height="24" viewBox="0 0 24 24" fill="none" xmlns="http://www.w3.org/2000/svg">
<g id="Trash">
<path id="Vector" d="M10 2.25C9.58579 2.25 9.25 2.58579 9.25 3V3.75H5C4.58579 3.75 4.25 4.08579 4.25 4.5C4.25 4.91421 4.58579 5.25 5 5.25H19C19.4142 5.25 19.75 4.91421 19.75 4.5C19.75 4.08579 19.4142 3.75 19 3.75H14.75V3C14.75 2.58579 14.4142 2.25 14 2.25H10Z" fill="#184640"/>
<path id="Vector_2" d="M10 10.6504C10.4142 10.6504 10.75 10.9862 10.75 11.4004V18.4004C10.75 18.8146 10.4142 19.1504 10 19.1504C9.58579 19.1504 9.25 18.8146 9.25 18.4004V11.4004C9.25 10.9862 9.58579 10.6504 10 10.6504Z" fill="#184640"/>
<path id="Vector_3" d="M14.75 11.4004C14.75 10.9862 14.4142 10.6504 14 10.6504C13.5858 10.6504 13.25 10.9862 13.25 11.4004V18.4004C13.25 18.8146 13.5858 19.1504 14 19.1504C14.4142 19.1504 14.75 18.8146 14.75 18.4004V11.4004Z" fill="#184640"/>
<path id="Vector_4" fill-rule="evenodd" clip-rule="evenodd" d="M5.9913 7.91718C6.03351 7.53735 6.35456 7.25 6.73672 7.25H17.2631C17.6452 7.25 17.9663 7.53735 18.0085 7.91718L18.2086 9.71852C18.5714 12.9838 18.5714 16.2793 18.2086 19.5446L18.1889 19.722C18.0449 21.0181 17.0403 22.0517 15.7488 22.2325C13.2617 22.5807 10.7381 22.5807 8.25096 22.2325C6.95942 22.0517 5.95488 21.0181 5.81086 19.722L5.79116 19.5446C5.42834 16.2793 5.42834 12.9838 5.79116 9.71852L5.9913 7.91718ZM7.408 8.75L7.28198 9.88417C6.9314 13.0394 6.9314 16.2238 7.28198 19.379L7.30168 19.5563C7.36999 20.171 7.8464 20.6612 8.45893 20.747C10.8081 21.0758 13.1917 21.0758 15.5408 20.747C16.1534 20.6612 16.6298 20.171 16.6981 19.5563L16.7178 19.379C17.0684 16.2238 17.0684 13.0394 16.7178 9.88417L16.5918 8.75H7.408Z" fill="#184640"/>
</g>
</svg>
