<svg width="24" height="24" viewBox="0 0 24 24" fill="none" xmlns="http://www.w3.org/2000/svg">
<g id="Copy">
<path id="Vector" d="M9 3.25C5.82436 3.25 3.25 5.82436 3.25 9V16.1069C3.25 16.5211 3.58579 16.8569 4 16.8569C4.41421 16.8569 4.75 16.5211 4.75 16.1069V9C4.75 6.65279 6.65279 4.75 9 4.75H16.0129C16.4271 4.75 16.7629 4.41421 16.7629 4C16.7629 3.58579 16.4271 3.25 16.0129 3.25H9Z" fill="#23CE9D"/>
<path id="Vector_2" fill-rule="evenodd" clip-rule="evenodd" d="M18.4026 6.79315C15.1616 6.43093 11.8384 6.43093 8.59748 6.79315C7.6742 6.89634 6.93227 7.62293 6.82344 8.55337C6.43906 11.8399 6.43906 15.1599 6.82344 18.4464C6.93227 19.3769 7.6742 20.1034 8.59748 20.2066C11.8384 20.5689 15.1616 20.5689 18.4026 20.2066C19.3258 20.1034 20.0678 19.3769 20.1766 18.4464C20.561 15.1599 20.561 11.8399 20.1766 8.55337C20.0678 7.62293 19.3258 6.89634 18.4026 6.79315ZM8.76409 8.28387C11.8943 7.93402 15.1057 7.93402 18.2359 8.28387C18.4733 8.31039 18.6599 8.4981 18.6867 8.72762C19.0576 11.8983 19.0576 15.1015 18.6867 18.2722C18.6599 18.5017 18.4733 18.6894 18.2359 18.7159C15.1057 19.0658 11.8943 19.0658 8.76409 18.7159C8.52674 18.6894 8.34013 18.5017 8.31329 18.2722C7.94245 15.1015 7.94245 11.8983 8.31329 8.72762C8.34013 8.4981 8.52674 8.31039 8.76409 8.28387Z" fill="#23CE9D"/>
</g>
</svg>
