<svg width="199" height="200" viewBox="0 0 199 200" fill="none" xmlns="http://www.w3.org/2000/svg">
<g id="Frame" opacity="0.5">
<path id="Vector" fill-rule="evenodd" clip-rule="evenodd" d="M32.4636 141.103C28.7738 105.464 28.7738 69.5363 32.4636 33.8971C33.7795 21.1883 48.3596 14.7508 58.5625 22.3734L92.5882 47.7935C102.957 55.5394 115.532 59.7223 128.451 59.7223H160.202C165.926 59.7223 170.566 64.386 170.566 70.139V104.861C170.566 110.614 165.926 115.278 160.202 115.278H155.026L162.035 141.569C162.816 144.498 161.391 147.569 158.656 148.851L128.133 163.156C126.467 163.937 124.543 163.937 122.877 163.156C121.211 162.375 119.974 160.893 119.498 159.109L109.029 119.838C108.917 119.422 108.851 119.003 108.827 118.588C103.043 120.596 97.5615 123.492 92.5882 127.207L58.5625 152.627C48.3596 160.249 33.7795 153.812 32.4636 141.103ZM44.8348 35.1907C41.2337 69.9698 41.2337 105.031 44.8348 139.809C45.1524 142.882 48.6763 144.438 51.1423 142.595L85.1688 117.175C97.6817 107.826 112.86 102.778 128.451 102.778H158.129V72.2224H128.451C112.86 72.2224 97.6817 67.174 85.1688 57.8254L51.1423 32.4053C48.6763 30.5629 45.1524 32.1189 44.8348 35.1907ZM120.759 115.774C123.299 115.445 125.869 115.278 128.451 115.278H142.149L148.671 139.738L129.594 148.679L121.042 116.603C120.966 116.317 120.871 116.04 120.759 115.774Z" fill="#23CE9D"/>
</g>
</svg>
