<svg width="16" height="16" viewBox="0 0 16 16" fill="none" xmlns="http://www.w3.org/2000/svg">
<g id="Frame">
<path id="Vector" d="M8 7.16666C8.27613 7.16666 8.5 7.39053 8.5 7.66666V11C8.5 11.2761 8.27613 11.5 8 11.5C7.72387 11.5 7.5 11.2761 7.5 11V7.66666C7.5 7.39053 7.72387 7.16666 8 7.16666Z" fill="#030306"/>
<path id="Vector_2" d="M8.00016 6C8.36836 6 8.66683 5.70152 8.66683 5.33333C8.66683 4.96514 8.36836 4.66666 8.00016 4.66666C7.63196 4.66666 7.3335 4.96514 7.3335 5.33333C7.3335 5.70152 7.63196 6 8.00016 6Z" fill="#030306"/>
<path id="Vector_3" fill-rule="evenodd" clip-rule="evenodd" d="M2.1665 8C2.1665 4.77834 4.77818 2.16666 7.99984 2.16666C11.2215 2.16666 13.8332 4.77834 13.8332 8C13.8332 11.2217 11.2215 13.8333 7.99984 13.8333C4.77818 13.8333 2.1665 11.2217 2.1665 8ZM7.99984 3.16666C5.33046 3.16666 3.1665 5.33062 3.1665 8C3.1665 10.6694 5.33046 12.8333 7.99984 12.8333C10.6692 12.8333 12.8332 10.6694 12.8332 8C12.8332 5.33062 10.6692 3.16666 7.99984 3.16666Z" fill="#030306"/>
</g>
</svg>
