<svg width="16" height="17" viewBox="0 0 16 17" fill="none" xmlns="http://www.w3.org/2000/svg">
<g id="Frame">
<path id="Vector" d="M4.67163 8.50031C4.67163 8.22418 4.89548 8.00031 5.17163 8.00031H7.50004V5.67188C7.50004 5.39574 7.7239 5.17188 8.00004 5.17188C8.27617 5.17188 8.50004 5.39574 8.50004 5.67188V8.00031H10.8285C11.1046 8.00031 11.3285 8.22418 11.3285 8.50031C11.3285 8.77644 11.1046 9.00031 10.8285 9.00031H8.50004V11.3287C8.50004 11.6049 8.27617 11.8287 8.00004 11.8287C7.7239 11.8287 7.50004 11.6049 7.50004 11.3287V9.00031H5.17163C4.89548 9.00031 4.67163 8.77644 4.67163 8.50031Z" fill="#1A2339"/>
<path id="Vector_2" fill-rule="evenodd" clip-rule="evenodd" d="M4.87782 3.01238C6.9362 2.78233 9.0638 2.78233 11.1221 3.01238C12.3397 3.14846 13.323 4.10756 13.4663 5.3322C13.7124 7.43681 13.7124 9.56294 13.4663 11.6675C13.323 12.8922 12.3397 13.8513 11.1221 13.9874C9.0638 14.2174 6.9362 14.2174 4.87782 13.9874C3.66024 13.8513 2.67697 12.8922 2.53374 11.6675C2.28758 9.56294 2.28758 7.43681 2.53374 5.3322C2.67697 4.10756 3.66024 3.14846 4.87782 3.01238ZM11.0111 4.0062C9.02654 3.78439 6.97347 3.78439 4.9889 4.0062C4.22594 4.09146 3.61524 4.69363 3.52697 5.44837C3.28984 7.47581 3.28984 9.52394 3.52697 11.5514C3.61524 12.3061 4.22594 12.9083 4.9889 12.9935C6.97347 13.2153 9.02654 13.2153 11.0111 12.9935C11.7741 12.9083 12.3847 12.3061 12.473 11.5514C12.7101 9.52394 12.7101 7.47581 12.473 5.44837C12.3847 4.69363 11.7741 4.09146 11.0111 4.0062Z" fill="#1A2339"/>
</g>
</svg>
