<svg width="16" height="16" viewBox="0 0 16 16" fill="none" xmlns="http://www.w3.org/2000/svg">
<g id="Frame">
<path id="Vector" fill-rule="evenodd" clip-rule="evenodd" d="M9.59028 10.2971C7.82342 11.7123 5.23713 11.6009 3.59927 9.96299C1.84191 8.20566 1.84191 5.35642 3.59927 3.59906C5.35663 1.8417 8.20588 1.8417 9.96322 3.59906C11.6011 5.23691 11.7125 7.82319 10.2973 9.59006L13.7345 13.0271C13.9297 13.2224 13.9297 13.539 13.7345 13.7343C13.5392 13.9295 13.2226 13.9295 13.0273 13.7343L9.59028 10.2971ZM4.30638 9.25592C2.93954 7.88906 2.93954 5.673 4.30638 4.30616C5.67322 2.93933 7.88928 2.93933 9.25615 4.30616C10.6219 5.672 10.6229 7.88579 9.25915 9.25292C9.25815 9.25392 9.25715 9.25486 9.25608 9.25592C9.25508 9.25692 9.25408 9.25792 9.25315 9.25892C7.88602 10.6227 5.67221 10.6217 4.30638 9.25592Z" fill="#A3A7B0"/>
<rect x="0.5" y="0.5" width="15" height="15" stroke="#EEEFF1"/>
</g>
</svg>
