<svg width="200" height="200" viewBox="0 0 200 200" fill="none" xmlns="http://www.w3.org/2000/svg">
<g id="Wallet">
<path id="Vector" d="M70.8333 100C70.8333 106.903 65.2366 112.5 58.3333 112.5C51.4299 112.5 45.8333 106.903 45.8333 100C45.8333 93.0967 51.4299 87.5 58.3333 87.5C65.2366 87.5 70.8333 93.0967 70.8333 100Z" fill="#1D8A6E"/>
<path id="Vector_2" fill-rule="evenodd" clip-rule="evenodd" d="M29.6558 144.384C35.1366 157.264 47.2483 166.524 61.6608 168.04L67.0933 168.612C94.5291 171.499 122.202 171.309 149.596 168.044L153.195 167.615C167.102 165.958 178.121 155.093 179.973 141.211C183.623 113.859 183.623 86.1421 179.973 58.7896C178.121 44.908 167.102 34.043 153.195 32.3854L149.596 31.9563C122.202 28.6921 94.5291 28.5021 67.0933 31.3888L61.6608 31.9604C47.2483 33.4771 35.1366 42.7363 29.6558 55.6171C20.995 58.1954 14.385 65.7038 13.3 74.9804C11.3558 91.6038 11.3558 108.397 13.3 125.02C14.385 134.297 20.995 141.805 29.6558 144.384ZM68.4016 156.18C94.9108 158.97 121.648 158.786 148.117 155.632L151.716 155.203C159.956 154.221 166.485 147.783 167.583 139.558C171.086 113.302 171.086 86.6979 167.583 60.4429C166.485 52.2171 159.956 45.7796 151.716 44.7979L148.117 44.3688C121.648 41.2146 94.9108 41.0304 68.4016 43.8204L62.9691 44.3921C55.8816 45.1379 49.61 48.6313 45.2641 53.8171C57.8316 53.0846 70.5666 53.4121 82.9858 54.7996C93.5633 55.9821 102.118 64.3121 103.366 74.9804C105.31 91.6038 105.31 108.397 103.366 125.02C102.118 135.689 93.5633 144.018 82.9858 145.201C70.5666 146.589 57.8316 146.916 45.2641 146.183C49.61 151.369 55.8816 154.863 62.9691 155.609L68.4016 156.18ZM39.355 133.211C39.35 133.179 39.345 133.147 39.34 133.115L39.29 132.791L37.6341 133.048C36.7775 132.963 35.9225 132.873 35.0691 132.778C30.1741 132.231 26.2766 128.363 25.7158 123.568C23.8841 107.91 23.8841 92.0913 25.7158 76.4329C26.2766 71.6379 30.1741 67.7696 35.0691 67.2229C35.9225 67.1271 36.7783 67.0371 37.6341 66.9521L39.29 67.2096L39.34 66.8854C39.345 66.8538 39.35 66.8213 39.355 66.7896C53.3441 65.5238 67.69 65.6679 81.5966 67.2229C86.4916 67.7696 90.39 71.6379 90.9508 76.4329C92.7825 92.0913 92.7825 107.91 90.9508 123.568C90.39 128.363 86.4916 132.231 81.5966 132.778C67.69 134.332 53.3441 134.477 39.355 133.211Z" fill="#1D8A6E"/>
</g>
</svg>
