<svg width="35" height="34" viewBox="0 0 35 34" fill="none" xmlns="http://www.w3.org/2000/svg">
<g id="Image">
<path id="Vector" d="M20.3333 12.75C20.3333 11.5764 21.2847 10.625 22.4583 10.625C23.6318 10.625 24.5833 11.5764 24.5833 12.75C24.5833 13.9236 23.6318 14.875 22.4583 14.875C21.2847 14.875 20.3333 13.9236 20.3333 12.75Z" fill="#184640"/>
<path id="Vector_2" fill-rule="evenodd" clip-rule="evenodd" d="M10.7958 6.59944C15.257 6.21164 19.7433 6.21164 24.2045 6.59944L26.3439 6.78542C28.3912 6.96338 30.0497 8.52122 30.3552 10.5533C30.9978 14.8269 30.9978 19.1727 30.3552 23.4464C30.0497 25.4784 28.3912 27.0362 26.3439 27.2143L24.2045 27.4001C19.7433 27.788 15.257 27.788 10.7958 27.4001L8.65629 27.2143C6.6091 27.0362 4.95065 25.4784 4.64508 23.4464C4.00242 19.1727 4.00242 14.8269 4.64508 10.5533C4.95065 8.52122 6.6091 6.96338 8.65629 6.78542L10.7958 6.59944ZM24.0205 8.71647C19.6818 8.33931 15.3184 8.33931 10.9798 8.71647L8.84031 8.90245C7.77168 8.99534 6.90597 9.80853 6.74646 10.8693C6.38161 13.2955 6.23458 15.7461 6.30533 18.192L11.7905 12.7069C11.9974 12.4999 12.2805 12.3875 12.573 12.3961C12.8655 12.4047 13.1415 12.5336 13.3359 12.7523L18.5371 18.6036L22.1224 17.4085C22.5235 17.2748 22.9655 17.3915 23.2482 17.7058L28.2336 23.2451C28.2413 23.2072 28.2479 23.169 28.2537 23.1303C28.8649 19.0662 28.8649 14.9335 28.2537 10.8693C28.0942 9.80853 27.2285 8.99534 26.1599 8.90245L24.0205 8.71647ZM26.8787 24.9162L22.1342 19.6446L18.5445 20.8411C18.1412 20.9756 17.6967 20.8567 17.4143 20.5391L12.4963 15.0063L6.48439 21.0182C6.5535 21.7238 6.64085 22.4281 6.74646 23.1303C6.90597 24.1911 7.77168 25.0043 8.84031 25.0972L10.9798 25.2832C15.3184 25.6603 19.6818 25.6603 24.0205 25.2832L26.1599 25.0972C26.4131 25.0753 26.6549 25.0128 26.8787 24.9162Z" fill="#184640"/>
</g>
</svg>
