<svg width="17" height="13" viewBox="0 0 17 13" fill="none" xmlns="http://www.w3.org/2000/svg">
<g id="Group">
<path id="Vector" d="M14.0447 1.27046C13.0249 0.802542 11.9313 0.457799 10.7879 0.26035C10.7671 0.256539 10.7463 0.266062 10.7356 0.285109C10.5949 0.535252 10.4392 0.861585 10.3301 1.11808C9.10027 0.933968 7.87679 0.933968 6.67221 1.11808C6.5631 0.855883 6.40166 0.535252 6.26038 0.285109C6.24966 0.266698 6.22886 0.257175 6.20803 0.26035C5.06527 0.457168 3.97171 0.801911 2.95129 1.27046C2.94246 1.27427 2.93488 1.28063 2.92986 1.28887C0.855594 4.38778 0.287367 7.41052 0.56612 10.3958C0.567381 10.4104 0.57558 10.4244 0.586932 10.4332C1.95547 11.4383 3.28114 12.0484 4.58219 12.4528C4.60301 12.4592 4.62507 12.4516 4.63832 12.4344C4.94608 12.0141 5.22043 11.571 5.45565 11.1049C5.46953 11.0777 5.45628 11.0453 5.42791 11.0345C4.99275 10.8694 4.5784 10.6681 4.17982 10.4396C4.14829 10.4212 4.14577 10.3761 4.17477 10.3545C4.25865 10.2916 4.34255 10.2263 4.42264 10.1602C4.43713 10.1482 4.45732 10.1456 4.47435 10.1532C7.09286 11.3488 9.9277 11.3488 12.5153 10.1532C12.5323 10.145 12.5525 10.1475 12.5677 10.1596C12.6478 10.2256 12.7316 10.2916 12.8161 10.3545C12.8451 10.3761 12.8433 10.4212 12.8117 10.4396C12.4131 10.6726 11.9988 10.8694 11.563 11.0338C11.5346 11.0446 11.522 11.0777 11.5359 11.1049C11.7762 11.5703 12.0505 12.0135 12.3526 12.4338C12.3652 12.4516 12.3879 12.4592 12.4087 12.4528C13.7161 12.0484 15.0417 11.4383 16.4103 10.4332C16.4223 10.4244 16.4298 10.411 16.4311 10.3964C16.7647 6.94512 15.8723 3.94717 14.0655 1.28951C14.0611 1.28063 14.0535 1.27427 14.0447 1.27046ZM5.84668 8.57807C5.05833 8.57807 4.40876 7.85431 4.40876 6.96545C4.40876 6.07659 5.04574 5.35283 5.84668 5.35283C6.65392 5.35283 7.29721 6.08295 7.28459 6.96545C7.28459 7.85431 6.64761 8.57807 5.84668 8.57807ZM11.1632 8.57807C10.3748 8.57807 9.72526 7.85431 9.72526 6.96545C9.72526 6.07659 10.3622 5.35283 11.1632 5.35283C11.9704 5.35283 12.6137 6.08295 12.6011 6.96545C12.6011 7.85431 11.9704 8.57807 11.1632 8.57807Z" fill="#030306"/>
</g>
</svg>
