<svg width="16" height="17" viewBox="0 0 16 17" fill="none" xmlns="http://www.w3.org/2000/svg">
<g id="opensea-seeklogo.com 1" clip-path="url(#clip0_33_1466)">
<path id="Vector" d="M16 8.5C16 12.918 12.418 16.5 8 16.5C3.58197 16.5 0 12.918 0 8.5C0 4.08197 3.58197 0.5 8 0.5C12.419 0.5 16 4.08197 16 8.5Z" fill="#030306"/>
<path id="Vector_2" d="M3.94698 8.76888L3.98149 8.71463L6.06261 5.45898C6.09302 5.41132 6.16453 5.41624 6.18754 5.46802C6.53522 6.2472 6.83522 7.21626 6.69467 7.81956C6.63467 8.06778 6.47029 8.40394 6.28534 8.71463C6.26152 8.75984 6.23522 8.80423 6.20726 8.84696C6.19411 8.86669 6.17192 8.8782 6.14808 8.8782H4.00779C3.95026 8.8782 3.91656 8.81573 3.94698 8.76888Z" fill="#030306"/>
<path id="Vector_3" d="M13.2232 9.37371V9.88906C13.2232 9.91864 13.2051 9.94494 13.1788 9.95645C13.0177 10.0255 12.4662 10.2786 12.2369 10.5976C11.6517 11.4121 11.2046 12.5768 10.2051 12.5768H6.03547C4.55766 12.5768 3.36011 11.3751 3.36011 9.89233V9.84467C3.36011 9.80521 3.39216 9.77317 3.43161 9.77317H5.75603C5.80204 9.77317 5.83574 9.8159 5.83164 9.8611C5.8152 10.0123 5.84315 10.1669 5.91465 10.3074C6.05273 10.5877 6.33876 10.7628 6.6478 10.7628H7.79851V9.8644H6.66096C6.6026 9.8644 6.56809 9.79699 6.60179 9.74933C6.61411 9.73042 6.62809 9.7107 6.64288 9.68851C6.75056 9.53563 6.90425 9.2981 7.05713 9.02768C7.16152 8.84522 7.2626 8.65041 7.34398 8.4548C7.36043 8.41946 7.37356 8.38328 7.38672 8.34794C7.40891 8.28547 7.43193 8.22712 7.44836 8.16877C7.46481 8.11944 7.47795 8.06766 7.4911 8.01917C7.52974 7.85313 7.54617 7.67725 7.54617 7.49478C7.54617 7.42328 7.54289 7.34848 7.53632 7.27697C7.53302 7.19889 7.52316 7.1208 7.51329 7.04272C7.50672 6.97368 7.4944 6.90546 7.48124 6.83395C7.46481 6.72957 7.44179 6.62601 7.41548 6.52162L7.40644 6.48218C7.38672 6.41066 7.37028 6.34245 7.34728 6.27094C7.28233 6.04654 7.20755 5.82792 7.12864 5.62326C7.09987 5.54189 7.06699 5.46381 7.03411 5.38573C6.98563 5.26819 6.9363 5.16134 6.8911 5.06024C6.86809 5.01421 6.84836 4.97229 6.82864 4.92955C6.80644 4.88106 6.78344 4.83256 6.76041 4.78654C6.74398 4.7512 6.72507 4.71832 6.71192 4.68544L6.57137 4.42571C6.55164 4.39037 6.58452 4.34845 6.62315 4.35914L7.50262 4.59749H7.50508C7.50672 4.59749 7.50755 4.59832 7.50836 4.59832L7.62425 4.63037L7.75166 4.66654L7.79851 4.67968V4.15694C7.79851 3.90461 8.0007 3.69995 8.25057 3.69995C8.3755 3.69995 8.48892 3.75091 8.5703 3.83392C8.65166 3.91694 8.70262 4.03037 8.70262 4.15694V4.93285L8.79633 4.95914C8.80372 4.96162 8.81112 4.9649 8.81769 4.96982C8.84072 4.98709 8.87358 5.01256 8.9155 5.04381C8.94838 5.0701 8.98372 5.10216 9.02646 5.13504C9.11112 5.20325 9.21222 5.2912 9.32318 5.3923C9.35276 5.41778 9.38153 5.44408 9.40784 5.47038C9.55086 5.60354 9.71113 5.7597 9.86401 5.9323C9.90675 5.9808 9.94867 6.03011 9.9914 6.08189C10.0341 6.1345 10.0794 6.18627 10.1188 6.23806C10.1706 6.3071 10.2265 6.37861 10.275 6.45341C10.298 6.48875 10.3243 6.52491 10.3465 6.56026C10.4089 6.65477 10.464 6.75259 10.5166 6.8504C10.5388 6.8956 10.5618 6.94491 10.5815 6.99341C10.6399 7.12409 10.6859 7.25725 10.7155 7.3904C10.7246 7.41917 10.7311 7.4504 10.7344 7.47835V7.48493C10.7443 7.52437 10.7476 7.56629 10.7509 7.60902C10.764 7.74547 10.7574 7.8819 10.7279 8.01917C10.7155 8.07753 10.6991 8.13259 10.6794 8.19096C10.6596 8.24685 10.6399 8.3052 10.6144 8.36027C10.5651 8.47451 10.5067 8.58877 10.4377 8.69562C10.4155 8.73507 10.3892 8.77699 10.3629 8.81645C10.3341 8.85835 10.3046 8.89781 10.2783 8.93645C10.2421 8.98576 10.2035 9.03753 10.164 9.08357C10.1287 9.13206 10.0925 9.18056 10.0531 9.2233C9.99798 9.28822 9.94537 9.34987 9.8903 9.40906C9.85744 9.44768 9.82209 9.48713 9.78592 9.52248C9.75059 9.56192 9.71441 9.59726 9.68153 9.63014C9.62648 9.68522 9.58044 9.72795 9.5418 9.7633L9.4514 9.84632C9.43825 9.85782 9.42099 9.8644 9.40291 9.8644H8.70262V10.7628H9.58372C9.78099 10.7628 9.9684 10.6929 10.1196 10.5647C10.1714 10.5195 10.3974 10.3239 10.6646 10.0288C10.6736 10.0189 10.6851 10.0115 10.6983 10.0082L13.132 9.30467C13.1772 9.29152 13.2232 9.32603 13.2232 9.37371Z" fill="#23CE9D"/>
</g>
<defs>
<clipPath id="clip0_33_1466">
<rect width="16" height="16" fill="white" transform="translate(0 0.5)"/>
</clipPath>
</defs>
</svg>
