<svg width="17" height="17" viewBox="0 0 17 17" fill="none" xmlns="http://www.w3.org/2000/svg">
<g id="Twitter - Negative" clip-path="url(#clip0_33_1451)">
<path id="Vector" d="M5.53344 15C11.5697 15 14.8722 9.9978 14.8722 5.66124C14.8722 5.52062 14.8691 5.37687 14.8628 5.23624C15.5052 4.77164 16.0597 4.19617 16.5 3.53687C15.9017 3.80307 15.2664 3.97692 14.6159 4.05249C15.3009 3.64194 15.8137 2.99698 16.0594 2.23718C15.415 2.61904 14.7104 2.88841 13.9756 3.03374C13.4806 2.50771 12.826 2.15941 12.1131 2.0427C11.4003 1.92599 10.6688 2.04737 10.0318 2.38806C9.39486 2.72876 8.88787 3.2698 8.58923 3.92754C8.2906 4.58528 8.21695 5.32308 8.37969 6.02687C7.075 5.96139 5.79862 5.62247 4.63332 5.03207C3.46802 4.44166 2.4398 3.61296 1.61531 2.59968C1.19627 3.32216 1.06804 4.1771 1.25669 4.99073C1.44534 5.80436 1.93671 6.51563 2.63094 6.97999C2.10975 6.96344 1.59998 6.82312 1.14375 6.57061V6.61124C1.14328 7.36943 1.4054 8.10439 1.88554 8.69118C2.36568 9.27797 3.03422 9.68037 3.7775 9.82999C3.2947 9.96209 2.78799 9.98133 2.29656 9.88624C2.5063 10.5383 2.91438 11.1086 3.46385 11.5176C4.01331 11.9265 4.67675 12.1537 5.36156 12.1675C4.19895 13.0807 2.76278 13.5761 1.28438 13.5737C1.02219 13.5733 0.760266 13.5573 0.5 13.5256C2.0019 14.4892 3.74902 15.0009 5.53344 15Z" fill="#030306"/>
</g>
<defs>
<clipPath id="clip0_33_1451">
<rect width="16" height="16" fill="white" transform="translate(0.5 0.5)"/>
</clipPath>
</defs>
</svg>
