<svg width="32" height="32" viewBox="0 0 32 32" fill="none" xmlns="http://www.w3.org/2000/svg">
<g id="Group 244">
<path id="Vector" d="M26.8137 0H12.1865V19.7331H31.9356V5.10587C31.9356 2.30406 29.63 0 26.8298 0C26.825 0 26.8185 0 26.8137 0V0Z" fill="#ACACAC"/>
<path id="Vector_2" d="M7.62669 0H5.10587C2.30567 0 0 2.30567 0 5.10587V7.62669H7.62669V0Z" fill="#ACACAC"/>
<path id="Vector_3" d="M0 12.1865H7.62669V19.8132H0V12.1865Z" fill="#ACACAC"/>
<path id="Vector_4" d="M24.3735 31.9355H26.8944C29.6962 31.9355 32.0002 29.6298 32.0002 26.8296C32.0002 26.8248 32.0002 26.8184 32.0002 26.8136V24.373H24.3735V31.9355Z" fill="#ACACAC"/>
<path id="Vector_5" d="M12.1865 24.373H19.8132V31.9997H12.1865V24.373Z" fill="#ACACAC"/>
<path id="Vector_6" d="M0 24.373V26.8939C0 29.6941 2.30567 31.9997 5.10587 31.9997H7.62669V24.373H0Z" fill="#ACACAC"/>
</g>
</svg>
