<svg width="32" height="32" viewBox="0 0 32 32" fill="none" xmlns="http://www.w3.org/2000/svg">
<g id="MetaMask_Fox 2">
<path id="Vector" d="M27.5303 3.56543L17.5366 10.9879L19.3847 6.60874L27.5303 3.56543Z" fill="#757575" stroke="#757575" stroke-linecap="round" stroke-linejoin="round"/>
<g id="Group">
<path id="Vector_2" d="M4.45947 3.56543L14.3728 11.0582L12.6152 6.60874L4.45947 3.56543Z" fill="#CFCFCF" stroke="#CFCFCF" stroke-linecap="round" stroke-linejoin="round"/>
<path id="Vector_3" d="M23.9346 20.7705L21.2729 24.8483L26.9679 26.4152L28.605 20.8609L23.9346 20.7705Z" fill="#CFCFCF" stroke="#CFCFCF" stroke-linecap="round" stroke-linejoin="round"/>
<path id="Vector_4" d="M3.40479 20.8609L5.0319 26.4152L10.7268 24.8483L8.06517 20.7705L3.40479 20.8609Z" fill="#CFCFCF" stroke="#CFCFCF" stroke-linecap="round" stroke-linejoin="round"/>
<path id="Vector_5" d="M10.4053 13.881L8.81836 16.2815L14.4731 16.5326L14.2722 10.4561L10.4053 13.881Z" fill="#CFCFCF" stroke="#CFCFCF" stroke-linecap="round" stroke-linejoin="round"/>
<path id="Vector_6" d="M21.5843 13.881L17.6672 10.3857L17.5366 16.5326L23.1813 16.2815L21.5843 13.881Z" fill="#CFCFCF" stroke="#CFCFCF" stroke-linecap="round" stroke-linejoin="round"/>
<path id="Vector_7" d="M10.7271 24.8486L14.1219 23.1914L11.1891 20.9014L10.7271 24.8486Z" fill="#CFCFCF" stroke="#CFCFCF" stroke-linecap="round" stroke-linejoin="round"/>
<path id="Vector_8" d="M17.8682 23.1914L21.2731 24.8486L20.801 20.9014L17.8682 23.1914Z" fill="#CFCFCF" stroke="#CFCFCF" stroke-linecap="round" stroke-linejoin="round"/>
</g>
<g id="Group_2">
<path id="Vector_9" d="M21.2731 24.8487L17.8682 23.1914L18.1394 25.4111L18.1092 26.3452L21.2731 24.8487Z" fill="#CACACA" stroke="#CACACA" stroke-linecap="round" stroke-linejoin="round"/>
<path id="Vector_10" d="M10.7271 24.8487L13.8909 26.3452L13.8708 25.4111L14.1219 23.1914L10.7271 24.8487Z" fill="#CACACA" stroke="#CACACA" stroke-linecap="round" stroke-linejoin="round"/>
</g>
<path id="Vector_11" d="M13.9408 19.4351L11.1084 18.6015L13.1071 17.6875L13.9408 19.4351Z" fill="#233447" stroke="#233447" stroke-linecap="round" stroke-linejoin="round"/>
<path id="Vector_12" d="M18.0488 19.4351L18.8825 17.6875L20.8913 18.6015L18.0488 19.4351Z" fill="#233447" stroke="#233447" stroke-linecap="round" stroke-linejoin="round"/>
<g id="Group_3">
<path id="Vector_13" d="M10.7271 24.8483L11.2092 20.7705L8.06543 20.8609L10.7271 24.8483Z" fill="#D9D9D9" stroke="#D9D9D9" stroke-linecap="round" stroke-linejoin="round"/>
<path id="Vector_14" d="M20.791 20.7705L21.2731 24.8483L23.9348 20.8609L20.791 20.7705Z" fill="#D9D9D9" stroke="#D9D9D9" stroke-linecap="round" stroke-linejoin="round"/>
<path id="Vector_15" d="M23.1818 16.2812L17.5371 16.5323L18.0594 19.435L18.893 17.6874L20.9018 18.6014L23.1818 16.2812Z" fill="#D9D9D9" stroke="#D9D9D9" stroke-linecap="round" stroke-linejoin="round"/>
<path id="Vector_16" d="M11.1089 18.6014L13.1177 17.6874L13.9413 19.435L14.4736 16.5323L8.81885 16.2812L11.1089 18.6014Z" fill="#D9D9D9" stroke="#D9D9D9" stroke-linecap="round" stroke-linejoin="round"/>
</g>
<g id="Group_4">
<path id="Vector_17" d="M8.81836 16.2812L11.1887 20.9015L11.1084 18.6014L8.81836 16.2812Z" fill="#606060" stroke="#606060" stroke-linecap="round" stroke-linejoin="round"/>
<path id="Vector_18" d="M20.9012 18.6014L20.8008 20.9015L23.1812 16.2812L20.9012 18.6014Z" fill="#606060" stroke="#606060" stroke-linecap="round" stroke-linejoin="round"/>
<path id="Vector_19" d="M14.4732 16.5322L13.9409 19.4349L14.6038 22.8599L14.7545 18.3502L14.4732 16.5322Z" fill="#606060" stroke="#606060" stroke-linecap="round" stroke-linejoin="round"/>
<path id="Vector_20" d="M17.5363 16.5322L17.2651 18.3401L17.3857 22.8599L18.0586 19.4349L17.5363 16.5322Z" fill="#606060" stroke="#606060" stroke-linecap="round" stroke-linejoin="round"/>
</g>
<path id="Vector_21" d="M18.0592 19.4352L17.3862 22.8602L17.8683 23.1917L20.8012 20.9016L20.9016 18.6016L18.0592 19.4352Z" fill="#A0A0A0" stroke="#A0A0A0" stroke-linecap="round" stroke-linejoin="round"/>
<path id="Vector_22" d="M11.1084 18.6016L11.1888 20.9016L14.1216 23.1917L14.6037 22.8602L13.9408 19.4352L11.1084 18.6016Z" fill="#A0A0A0" stroke="#A0A0A0" stroke-linecap="round" stroke-linejoin="round"/>
<path id="Vector_23" d="M18.1093 26.3452L18.1395 25.4111L17.8884 25.1901H14.1018L13.8708 25.4111L13.8909 26.3452L10.7271 24.8486L11.8319 25.7526L14.0717 27.3094H17.9185L20.1684 25.7526L21.2732 24.8486L18.1093 26.3452Z" fill="#969696" stroke="#969696" stroke-linecap="round" stroke-linejoin="round"/>
<path id="Vector_24" d="M17.8681 23.1918L17.386 22.8604H14.6038L14.1217 23.1918L13.8706 25.4115L14.1016 25.1905H17.8882L18.1393 25.4115L17.8681 23.1918Z" fill="#161616" stroke="#161616" stroke-linecap="round" stroke-linejoin="round"/>
<g id="Group_5">
<path id="Vector_25" d="M27.9523 11.47L28.806 7.37208L27.5304 3.56543L17.8682 10.7368L21.5844 13.8806L26.8374 15.4173L28.0025 14.0613L27.5003 13.6998L28.3038 12.9666L27.6811 12.4845L28.4846 11.8718L27.9523 11.47Z" fill="#676767" stroke="#676767" stroke-linecap="round" stroke-linejoin="round"/>
<path id="Vector_26" d="M3.19385 7.37208L4.04758 11.47L3.50521 11.8718L4.30873 12.4845L3.69605 12.9666L4.49956 13.6998L3.99736 14.0613L5.15242 15.4173L10.4054 13.8806L14.1217 10.7368L4.45939 3.56543L3.19385 7.37208Z" fill="#676767" stroke="#676767" stroke-linecap="round" stroke-linejoin="round"/>
</g>
<path id="Vector_27" d="M26.8372 15.4176L21.5842 13.8809L23.1812 16.2814L20.8008 20.9016L23.9345 20.8614H28.6049L26.8372 15.4176Z" fill="#A0A0A0" stroke="#A0A0A0" stroke-linecap="round" stroke-linejoin="round"/>
<path id="Vector_28" d="M10.4054 13.8809L5.15243 15.4176L3.40479 20.8614H8.06517L11.1888 20.9016L8.81847 16.2814L10.4054 13.8809Z" fill="#A0A0A0" stroke="#A0A0A0" stroke-linecap="round" stroke-linejoin="round"/>
<path id="Vector_29" d="M17.5368 16.5328L17.8682 10.7374L19.3949 6.60938H12.6152L14.1218 10.7374L14.4734 16.5328L14.5939 18.3608L14.6039 22.8605H17.3861L17.4062 18.3608L17.5368 16.5328Z" fill="#A0A0A0" stroke="#A0A0A0" stroke-linecap="round" stroke-linejoin="round"/>
</g>
</svg>
