<svg width="23" height="32" viewBox="0 0 23 32" fill="none" xmlns="http://www.w3.org/2000/svg">
<path id="path7" d="M11.5177 0C7.12733 0 3.57424 3.55309 3.57424 7.94351V10.9207C2.0325 11.1998 0.486328 11.5719 0.486328 12.0548V27.5919C0.486328 27.5919 0.486328 28.0216 0.96923 28.2254C2.71919 28.9342 9.60386 31.3709 11.1855 31.9291C11.3893 32.0044 11.4469 32.0044 11.5 32.0044C11.5753 32.0044 11.6108 32.0044 11.8146 31.9291C13.3962 31.3709 20.2986 28.9342 22.0485 28.2254C22.496 28.0393 22.5137 27.6096 22.5137 27.6096V12.0548C22.5137 11.5719 20.9897 11.1821 19.4435 10.9207V7.94351C19.4657 3.55309 15.8904 0 11.5177 0ZM11.5177 3.79676C14.105 3.79676 15.6689 5.36065 15.6689 7.94794V10.5352C12.7671 10.3314 10.2906 10.3314 7.371 10.5352V7.94794C7.371 5.35622 8.93489 3.79676 11.5177 3.79676ZM11.5 14.3453C15.1107 14.3453 18.141 14.6244 18.141 15.125V24.8185C18.141 24.9691 18.1233 24.9868 17.9904 25.04C17.8619 25.0976 11.8323 27.2729 11.8323 27.2729C11.8323 27.2729 11.5886 27.3482 11.5177 27.3482C11.4424 27.3482 11.2032 27.2552 11.2032 27.2552C11.2032 27.2552 5.17357 25.0799 5.0451 25.0223C4.91662 24.9647 4.89447 24.947 4.89447 24.8008V15.1073C4.85902 14.6067 7.88934 14.3453 11.5 14.3453Z" fill="#ACACAC"/>
</svg>
