<svg width="33" height="32" viewBox="0 0 33 32" fill="none" xmlns="http://www.w3.org/2000/svg">
<g id="MetaMask_Fox 3" clip-path="url(#clip0_16896_1331)">
<g id="Group">
<path id="Vector" d="M21.7731 24.8487L18.3682 23.1914L18.6394 25.4111L18.6092 26.3452L21.7731 24.8487Z" fill="#D7C1B3" stroke="#D7C1B3" stroke-linecap="round" stroke-linejoin="round"/>
<path id="Vector_2" d="M11.2271 24.8487L14.3909 26.3452L14.3708 25.4111L14.6219 23.1914L11.2271 24.8487Z" fill="#D7C1B3" stroke="#D7C1B3" stroke-linecap="round" stroke-linejoin="round"/>
</g>
<path id="Vector_3" d="M14.4408 19.4351L11.6084 18.6015L13.6071 17.6875L14.4408 19.4351Z" fill="#233447" stroke="#233447" stroke-linecap="round" stroke-linejoin="round"/>
<path id="Vector_4" d="M18.5488 19.4351L19.3825 17.6875L21.3913 18.6015L18.5488 19.4351Z" fill="#233447" stroke="#233447" stroke-linecap="round" stroke-linejoin="round"/>
<g id="Group_2">
<path id="Vector_5" d="M11.2271 24.8483L11.7092 20.7705L8.56543 20.8609L11.2271 24.8483Z" fill="#CD6116" stroke="#CD6116" stroke-linecap="round" stroke-linejoin="round"/>
<path id="Vector_6" d="M21.291 20.7705L21.7731 24.8483L24.4348 20.8609L21.291 20.7705Z" fill="#CD6116" stroke="#CD6116" stroke-linecap="round" stroke-linejoin="round"/>
<path id="Vector_7" d="M23.6818 16.2812L18.0371 16.5323L18.5594 19.435L19.393 17.6874L21.4018 18.6014L23.6818 16.2812Z" fill="#CD6116" stroke="#CD6116" stroke-linecap="round" stroke-linejoin="round"/>
<path id="Vector_8" d="M11.6089 18.6014L13.6177 17.6874L14.4413 19.435L14.9736 16.5323L9.31885 16.2812L11.6089 18.6014Z" fill="#CD6116" stroke="#CD6116" stroke-linecap="round" stroke-linejoin="round"/>
</g>
<g id="Group_3">
<path id="Vector_9" d="M9.31836 16.2812L11.6887 20.9015L11.6084 18.6014L9.31836 16.2812Z" fill="#E4751F" stroke="#E4751F" stroke-linecap="round" stroke-linejoin="round"/>
<path id="Vector_10" d="M21.4012 18.6014L21.3008 20.9015L23.6812 16.2812L21.4012 18.6014Z" fill="#E4751F" stroke="#E4751F" stroke-linecap="round" stroke-linejoin="round"/>
<path id="Vector_11" d="M14.9732 16.5322L14.4409 19.4349L15.1038 22.8599L15.2545 18.3502L14.9732 16.5322Z" fill="#E4751F" stroke="#E4751F" stroke-linecap="round" stroke-linejoin="round"/>
<path id="Vector_12" d="M18.0363 16.5322L17.7651 18.3401L17.8857 22.8599L18.5586 19.4349L18.0363 16.5322Z" fill="#E4751F" stroke="#E4751F" stroke-linecap="round" stroke-linejoin="round"/>
</g>
<path id="Vector_13" d="M18.5592 19.4352L17.8862 22.8602L18.3683 23.1917L21.3012 20.9016L21.4016 18.6016L18.5592 19.4352Z" fill="#F6851B" stroke="#F6851B" stroke-linecap="round" stroke-linejoin="round"/>
<path id="Vector_14" d="M11.6084 18.6016L11.6888 20.9016L14.6216 23.1917L15.1037 22.8602L14.4408 19.4352L11.6084 18.6016Z" fill="#F6851B" stroke="#F6851B" stroke-linecap="round" stroke-linejoin="round"/>
<path id="Vector_15" d="M18.6093 26.3452L18.6395 25.4111L18.3884 25.1901H14.6018L14.3708 25.4111L14.3909 26.3452L11.2271 24.8486L12.3319 25.7526L14.5717 27.3094H18.4185L20.6684 25.7526L21.7732 24.8486L18.6093 26.3452Z" fill="#C0AD9E" stroke="#C0AD9E" stroke-linecap="round" stroke-linejoin="round"/>
<path id="Vector_16" d="M18.3681 23.1918L17.886 22.8604H15.1038L14.6217 23.1918L14.3706 25.4115L14.6016 25.1905H18.3882L18.6393 25.4115L18.3681 23.1918Z" fill="#161616" stroke="#161616" stroke-linecap="round" stroke-linejoin="round"/>
<path id="Vector_17" d="M27.3372 15.4176L22.0842 13.8809L23.6812 16.2814L21.3008 20.9016L24.4345 20.8614H29.1049L27.3372 15.4176Z" fill="#F6851B" stroke="#F6851B" stroke-linecap="round" stroke-linejoin="round"/>
<path id="Vector_18" d="M10.9054 13.8809L5.65243 15.4176L3.90479 20.8614H8.56517L11.6888 20.9016L9.31847 16.2814L10.9054 13.8809Z" fill="#F6851B" stroke="#F6851B" stroke-linecap="round" stroke-linejoin="round"/>
<path id="Vector_19" d="M18.0368 16.5328L18.3682 10.7374L19.8949 6.60938H13.1152L14.6218 10.7374L14.9734 16.5328L15.0939 18.3608L15.1039 22.8605H17.8861L17.9062 18.3608L18.0368 16.5328Z" fill="#F6851B" stroke="#F6851B" stroke-linecap="round" stroke-linejoin="round"/>
<g id="Group_4">
<path id="Vector_20" fill-rule="evenodd" clip-rule="evenodd" d="M16.5 0C25.3375 0 32.5 7.1625 32.5 16C32.5 24.8375 25.3375 32 16.5 32C7.6625 32 0.5 24.8375 0.5 16C0.5 7.1625 7.6625 0 16.5 0Z" fill="url(#paint0_radial_16896_1331)"/>
<path id="Vector_21" d="M10.6689 12.3559C13.8877 9.21211 19.1127 9.21211 22.3314 12.3559L22.7189 12.7371C22.8814 12.8934 22.8814 13.1496 22.7189 13.3059L21.3939 14.5996C21.3127 14.6809 21.1814 14.6809 21.1002 14.5996L20.5689 14.0809C18.3189 11.8871 14.6814 11.8871 12.4314 14.0809L11.8627 14.6371C11.7814 14.7184 11.6502 14.7184 11.5689 14.6371L10.2439 13.3434C10.0814 13.1871 10.0814 12.9309 10.2439 12.7746L10.6689 12.3559ZM25.0752 15.0309L26.2564 16.1809C26.4189 16.3371 26.4189 16.5933 26.2564 16.7496L20.9377 21.9433C20.7752 22.0996 20.5127 22.0996 20.3564 21.9433L16.5814 18.2558C16.5439 18.2183 16.4752 18.2183 16.4377 18.2558L12.6627 21.9433C12.5002 22.0996 12.2377 22.0996 12.0814 21.9433L6.74395 16.7496C6.58145 16.5933 6.58145 16.3371 6.74395 16.1809L7.92519 15.0309C8.08769 14.8746 8.3502 14.8746 8.50645 15.0309L12.2814 18.7183C12.3189 18.7558 12.3877 18.7558 12.4252 18.7183L16.2002 15.0309C16.3627 14.8746 16.6252 14.8746 16.7814 15.0309L20.5564 18.7183C20.5939 18.7558 20.6627 18.7558 20.7002 18.7183L24.4752 15.0309C24.6502 14.8746 24.9127 14.8746 25.0752 15.0309Z" fill="white"/>
</g>
</g>
<defs>
<radialGradient id="paint0_radial_16896_1331" cx="0" cy="0" r="1" gradientUnits="userSpaceOnUse" gradientTransform="translate(0.500099 16.0005) scale(32)">
<stop stop-color="#CBCBCB"/>
<stop offset="1" stop-color="#A5A5A5"/>
</radialGradient>
<clipPath id="clip0_16896_1331">
<rect width="32" height="32" fill="white" transform="translate(0.5)"/>
</clipPath>
</defs>
</svg>
